<svg width="100" height="70" viewBox="0 0 100 70" xmlns="http://www.w3.org/2000/svg"><path d="M48.1 2.008c13.7 4.2 28.5 17.2 37.4 33 3.1 5.5 14.5 32.6 14.5 34.5 0 .4-2.1.1-4.7-.7-3.2-1-12.3-1.8-27.3-2.3-22.6-.9-29.3-1.7-38.5-4.7-17.1-5.5-27.5-16.2-29.1-30-.8-6.6.8-11.3 5.7-16.2l4-4 6.7 2.4c10.3 3.5 17.8 7.1 25 11.9 6.5 4.3 15.2 12.4 12.2 11.4-.8-.3-7.4-3.1-14.7-6.2-14.7-6.3-23.4-8.7-26.1-7-2.8 1.8-3.7 5.8-2.3 10.4 3.5 11.9 18.6 19.3 44.6 21.9 11.2 1.1 30.5 1.5 30.5.6 0-.3-1.1-3.2-2.4-6.5-5.3-13-18-28.4-29.5-35.8-9.4-6.1-14.9-7.7-26.8-7.7-5.5 0-9.9-.3-9.6-.8 1-1.7 8.5-4.8 13.5-5.5 6.1-1 10.4-.6 16.9 1.3Z" fill="#000" fill-rule="nonzero"/></svg>
